<?xml version="1.0" encoding="iso-8859-1"?>
<!-- Generator: Adobe Illustrator 21.0.0, SVG Export Plug-In . SVG Version: 6.00 Build 0)  -->
<svg xmlns="http://www.w3.org/2000/svg" xmlns:xlink="http://www.w3.org/1999/xlink" version="1.1" id="Capa_1" x="0px" y="0px" viewBox="0 0 512.036 512.036" style="enable-background:new 0 0 512.036 512.036;" xml:space="preserve" width="512" height="512">
<g>
	<g>
		<path style="fill:#AECEF2;" d="M231.646,485.624c-3.979,0-7.794-1.581-10.607-4.394L82.712,342.902    c-5.792-5.792-5.867-15.158-0.169-21.042L343.671,52.21c2.797-2.888,6.635-4.532,10.655-4.564    c3.977-0.053,7.884,1.55,10.727,4.393l142.589,142.589c5.858,5.858,5.858,15.355,0,21.213l-265.39,265.39    C239.44,484.043,235.624,485.624,231.646,485.624z"/>
		<g>
			<polygon style="fill:#416191;" points="149.903,410.093 313.389,410.093 378.546,344.936 84.746,344.936    "/>
			<path style="fill:#416191;" d="M123.295,279.778h320.409l63.938-63.938c0.39-0.39,0.75-0.799,1.089-1.219H186.393     L123.295,279.778z"/>
			<path style="fill:#416191;" d="M365.053,52.039c-2.843-2.843-6.75-4.446-10.727-4.393c-4.021,0.032-7.858,1.677-10.655,4.564     l-94.18,97.254h212.987L365.053,52.039z"/>
		</g>
	</g>
	<g>
		<path style="fill:#DFEEFA;" d="M80.965,417.092c-18.139,0-38.54-8.839-55.333-25.632c-28.158-28.159-33.958-66.475-13.203-87.229    l265.39-265.389c5.857-5.858,15.355-5.858,21.213,0l79.219,79.218c2.814,2.813,4.394,6.628,4.394,10.607    c0,3.978-1.58,7.793-4.394,10.606l-265.39,265.39C104.484,413.04,93.242,417.092,80.965,417.092z"/>
		<path style="fill:#C9DFF7;" d="M80.965,417.092c12.276,0,23.519-4.052,31.896-12.429l265.39-265.39    c2.814-2.813,4.394-6.628,4.394-10.606c0-3.979-1.58-7.794-4.394-10.607l-39.608-39.608L25.633,391.461    C42.426,408.253,62.827,417.092,80.965,417.092z"/>
	</g>
	<g>
		<path style="fill:#D6D3C5;" d="M346.267,151.65c-3.84,0-7.803-0.396-11.839-1.204c-15.341-3.068-30.756-11.725-43.406-24.376    c-12.651-12.65-21.309-28.066-24.376-43.407c-3.458-17.29,0.614-33.263,11.173-43.822c20.753-20.754,59.07-14.956,87.229,13.203    s33.957,66.474,13.203,87.229l0,0C370.157,147.368,358.879,151.65,346.267,151.65z M367.644,128.667h0.01H367.644z"/>
		<path style="fill:#C4C0AD;" d="M334.428,150.446c4.036,0.807,7.999,1.204,11.839,1.204c12.612,0,23.89-4.282,31.983-12.377    c20.754-20.755,14.955-59.069-13.202-87.228l-74.025,74.025C303.673,138.722,319.088,147.378,334.428,150.446z"/>
		<path style="fill:#878477;" d="M346.267,111.65c-1.234,0-2.578-0.144-3.995-0.427c-7.569-1.514-15.94-6.412-22.965-13.437    C312.28,90.76,307.383,82.39,305.87,74.82c-0.965-4.823-0.031-7.348,0.251-7.714c0.338-0.335,1.691-0.694,3.594-0.694    c6.058,0,16.777,3.645,27.049,13.917c14.878,14.878,14.93,28.933,13.202,30.661C349.798,111.115,348.621,111.65,346.267,111.65z"/>
		<path style="fill:#696453;" d="M342.272,111.223c1.417,0.283,2.761,0.427,3.995,0.427c2.354,0,3.531-0.535,3.698-0.661    c1.727-1.728,1.676-15.782-13.201-30.66l-17.457,17.457C326.331,104.812,334.703,109.709,342.272,111.223z"/>
	</g>
</g>















</svg>
