<svg id="Layer_1" enable-background="new 0 0 510 510" height="512" viewBox="0 0 510 510" width="512" xmlns="http://www.w3.org/2000/svg"><g id="XMLID_203_"><path id="XMLID_988_" d="m150 0h-135v510h135l18-245z" fill="#ff6a6e"/><path id="XMLID_987_" d="m150 0v255l105-104.665 15-75.335-15-75z" fill="#d4e6fc"/><path id="XMLID_986_" d="m495 0h-240v150.335l105 359.665h135z" fill="#b2d9fd"/><path id="XMLID_985_" d="m177.583 184.41c2.72-1.143 52.75 71.844 52.75 71.844l24.667-22.841 12.5-43.913-12.5-39.165c-9.365 4.122-67.989 29.926-77.417 34.075z" fill="#b2d9fd"/><path id="XMLID_984_" d="m360 180.913 30-15c0-35.333-36.304-59.021-68.645-44.785-17.944 7.898-55.723 24.526-66.355 29.207v83.078l55.667-14.241z" fill="#96c9f2"/><path id="XMLID_983_" d="m240 240.913c0-5.246 0-9.754 0-15 0-24.852-20.146-45-45-45-5.922 0-11.825 1.148-17.417 3.497-.102.045-.583.257-.481.212-.203.088-.402.182-.604.273-.1.051-3.956 2.02-3.827 1.955-13.823 7.919-22.671 22.655-22.671 39.063v284.087h105l7.5-135-7.5-141.587c-5.246 2.623-9.754 4.877-15 7.5z" fill="#ffd900"/><path id="XMLID_982_" d="m360 180.913-105 52.5v276.587h105z" fill="#ffb227"/><g fill="#ffd900"><path id="XMLID_981_" d="m62.667 60h30v30h-30z"/><path id="XMLID_980_" d="m62.667 180h30v30h-30z"/><path id="XMLID_979_" d="m62.667 300h30v30h-30z"/><path id="XMLID_978_" d="m62.667 420h30v30h-30z"/></g><path id="XMLID_977_" d="m285 330h30c0-10.492 0-19.508 0-30h-30z" fill="#ff1b79"/><path id="XMLID_976_" d="m195 300h30v30h-30z" fill="#ff6a6e"/><path id="XMLID_975_" d="m285 450h30v-30c-10.492 0-19.508 0-30 0z" fill="#ff1b79"/><path id="XMLID_974_" d="m195 420h30v30h-30z" fill="#ff6a6e"/><path id="XMLID_973_" d="m240 360v30h15l7.5-15-7.5-15c-5.246 0-9.754 0-15 0z" fill="#ff6a6e"/><path id="XMLID_972_" d="m255 360h15v30h-15z" fill="#ff1b79"/></g></svg>